<svg id="visual" viewBox="0 0 960 100" width="960" height="100" xmlns="http://www.w3.org/2000/svg" xmlns:xlink="http://www.w3.org/1999/xlink" version="1.1"><rect x="0" y="0" width="960" height="100" fill="#ffffff"></rect><path d="M0 77L11.5 74.2C23 71.3 46 65.7 68.8 65.5C91.7 65.3 114.3 70.7 137.2 73.2C160 75.7 183 75.3 205.8 72C228.7 68.7 251.3 62.3 274.2 61.7C297 61 320 66 342.8 69.8C365.7 73.7 388.3 76.3 411.2 78C434 79.7 457 80.3 480 80.2C503 80 526 79 548.8 76.7C571.7 74.3 594.3 70.7 617.2 70.3C640 70 663 73 685.8 75.2C708.7 77.3 731.3 78.7 754.2 76.8C777 75 800 70 822.8 65C845.7 60 868.3 55 891.2 53.5C914 52 937 54 948.5 55L960 56L960 0L948.5 0C937 0 914 0 891.2 0C868.3 0 845.7 0 822.8 0C800 0 777 0 754.2 0C731.3 0 708.7 0 685.8 0C663 0 640 0 617.2 0C594.3 0 571.7 0 548.8 0C526 0 503 0 480 0C457 0 434 0 411.2 0C388.3 0 365.7 0 342.8 0C320 0 297 0 274.2 0C251.3 0 228.7 0 205.8 0C183 0 160 0 137.2 0C114.3 0 91.7 0 68.8 0C46 0 23 0 11.5 0L0 0Z" fill="#d4e1f4"></path><path d="M0 55L11.5 56.2C23 57.3 46 59.7 68.8 58.3C91.7 57 114.3 52 137.2 49.8C160 47.7 183 48.3 205.8 50C228.7 51.7 251.3 54.3 274.2 52C297 49.7 320 42.3 342.8 41C365.7 39.7 388.3 44.3 411.2 49.2C434 54 457 59 480 60.8C503 62.7 526 61.3 548.8 57.7C571.7 54 594.3 48 617.2 48.2C640 48.3 663 54.7 685.8 57.5C708.7 60.3 731.3 59.7 754.2 55.3C777 51 800 43 822.8 39.2C845.7 35.3 868.3 35.7 891.2 36C914 36.3 937 36.7 948.5 36.8L960 37L960 0L948.5 0C937 0 914 0 891.2 0C868.3 0 845.7 0 822.8 0C800 0 777 0 754.2 0C731.3 0 708.7 0 685.8 0C663 0 640 0 617.2 0C594.3 0 571.7 0 548.8 0C526 0 503 0 480 0C457 0 434 0 411.2 0C388.3 0 365.7 0 342.8 0C320 0 297 0 274.2 0C251.3 0 228.7 0 205.8 0C183 0 160 0 137.2 0C114.3 0 91.7 0 68.8 0C46 0 23 0 11.5 0L0 0Z" fill="#a5c4eb"></path><path d="M0 22L11.5 22.5C23 23 46 24 68.8 25.2C91.7 26.3 114.3 27.7 137.2 29.8C160 32 183 35 205.8 36.5C228.7 38 251.3 38 274.2 35.5C297 33 320 28 342.8 27.8C365.7 27.7 388.3 32.3 411.2 33.2C434 34 457 31 480 29.8C503 28.7 526 29.3 548.8 29.8C571.7 30.3 594.3 30.7 617.2 33.3C640 36 663 41 685.8 40.3C708.7 39.7 731.3 33.3 754.2 31.3C777 29.3 800 31.7 822.8 34.3C845.7 37 868.3 40 891.2 40.7C914 41.3 937 39.7 948.5 38.8L960 38L960 0L948.5 0C937 0 914 0 891.2 0C868.3 0 845.7 0 822.8 0C800 0 777 0 754.2 0C731.3 0 708.7 0 685.8 0C663 0 640 0 617.2 0C594.3 0 571.7 0 548.8 0C526 0 503 0 480 0C457 0 434 0 411.2 0C388.3 0 365.7 0 342.8 0C320 0 297 0 274.2 0C251.3 0 228.7 0 205.8 0C183 0 160 0 137.2 0C114.3 0 91.7 0 68.8 0C46 0 23 0 11.5 0L0 0Z" fill="#6fa8e2"></path><path d="M0 17L11.5 18.7C23 20.3 46 23.7 68.8 23C91.7 22.3 114.3 17.7 137.2 16.2C160 14.7 183 16.3 205.8 16.2C228.7 16 251.3 14 274.2 15.8C297 17.7 320 23.3 342.8 25C365.7 26.7 388.3 24.3 411.2 22.7C434 21 457 20 480 18.2C503 16.3 526 13.7 548.8 13.7C571.7 13.7 594.3 16.3 617.2 18C640 19.7 663 20.3 685.8 20.3C708.7 20.3 731.3 19.7 754.2 20.2C777 20.7 800 22.3 822.8 20.8C845.7 19.3 868.3 14.7 891.2 12.7C914 10.7 937 11.3 948.5 11.7L960 12L960 0L948.5 0C937 0 914 0 891.2 0C868.3 0 845.7 0 822.8 0C800 0 777 0 754.2 0C731.3 0 708.7 0 685.8 0C663 0 640 0 617.2 0C594.3 0 571.7 0 548.8 0C526 0 503 0 480 0C457 0 434 0 411.2 0C388.3 0 365.7 0 342.8 0C320 0 297 0 274.2 0C251.3 0 228.7 0 205.8 0C183 0 160 0 137.2 0C114.3 0 91.7 0 68.8 0C46 0 23 0 11.5 0L0 0Z" fill="#058ed9"></path></svg>