<svg id="visual" viewBox="0 0 960 150" width="960" height="150" xmlns="http://www.w3.org/2000/svg" xmlns:xlink="http://www.w3.org/1999/xlink" version="1.1"><path d="M0 71L14.5 63.7C29 56.3 58 41.7 87.2 40.5C116.3 39.3 145.7 51.7 174.8 51.2C204 50.7 233 37.3 262 37.3C291 37.3 320 50.7 349 56.3C378 62 407 60 436.2 56.7C465.3 53.3 494.7 48.7 523.8 44.2C553 39.7 582 35.3 611 36.3C640 37.3 669 43.7 698 50.3C727 57 756 64 785.2 64.2C814.3 64.3 843.7 57.7 872.8 51.8C902 46 931 41 945.5 38.5L960 36L960 151L945.5 151C931 151 902 151 872.8 151C843.7 151 814.3 151 785.2 151C756 151 727 151 698 151C669 151 640 151 611 151C582 151 553 151 523.8 151C494.7 151 465.3 151 436.2 151C407 151 378 151 349 151C320 151 291 151 262 151C233 151 204 151 174.8 151C145.7 151 116.3 151 87.2 151C58 151 29 151 14.5 151L0 151Z" fill="#e4f2f9"></path><path d="M0 75L14.5 77.3C29 79.7 58 84.3 87.2 81.2C116.3 78 145.7 67 174.8 65.2C204 63.3 233 70.7 262 72.5C291 74.3 320 70.7 349 67.8C378 65 407 63 436.2 59.8C465.3 56.7 494.7 52.3 523.8 57C553 61.7 582 75.3 611 81C640 86.7 669 84.3 698 83.5C727 82.7 756 83.3 785.2 84C814.3 84.7 843.7 85.3 872.8 83C902 80.7 931 75.3 945.5 72.7L960 70L960 151L945.5 151C931 151 902 151 872.8 151C843.7 151 814.3 151 785.2 151C756 151 727 151 698 151C669 151 640 151 611 151C582 151 553 151 523.8 151C494.7 151 465.3 151 436.2 151C407 151 378 151 349 151C320 151 291 151 262 151C233 151 204 151 174.8 151C145.7 151 116.3 151 87.2 151C58 151 29 151 14.5 151L0 151Z" fill="#b6daf0"></path><path d="M0 99L14.5 98.7C29 98.3 58 97.7 87.2 97C116.3 96.3 145.7 95.7 174.8 94C204 92.3 233 89.7 262 89.3C291 89 320 91 349 93.3C378 95.7 407 98.3 436.2 95.2C465.3 92 494.7 83 523.8 81.2C553 79.3 582 84.7 611 89.3C640 94 669 98 698 96.3C727 94.7 756 87.3 785.2 82.5C814.3 77.7 843.7 75.3 872.8 77.7C902 80 931 87 945.5 90.5L960 94L960 151L945.5 151C931 151 902 151 872.8 151C843.7 151 814.3 151 785.2 151C756 151 727 151 698 151C669 151 640 151 611 151C582 151 553 151 523.8 151C494.7 151 465.3 151 436.2 151C407 151 378 151 349 151C320 151 291 151 262 151C233 151 204 151 174.8 151C145.7 151 116.3 151 87.2 151C58 151 29 151 14.5 151L0 151Z" fill="#88c1e8"></path><path d="M0 111L14.5 107.7C29 104.3 58 97.7 87.2 97C116.3 96.3 145.7 101.7 174.8 101.8C204 102 233 97 262 94.5C291 92 320 92 349 94.8C378 97.7 407 103.3 436.2 104.5C465.3 105.7 494.7 102.3 523.8 99.3C553 96.3 582 93.7 611 95.3C640 97 669 103 698 105.5C727 108 756 107 785.2 106.3C814.3 105.7 843.7 105.3 872.8 106.2C902 107 931 109 945.5 110L960 111L960 151L945.5 151C931 151 902 151 872.8 151C843.7 151 814.3 151 785.2 151C756 151 727 151 698 151C669 151 640 151 611 151C582 151 553 151 523.8 151C494.7 151 465.3 151 436.2 151C407 151 378 151 349 151C320 151 291 151 262 151C233 151 204 151 174.8 151C145.7 151 116.3 151 87.2 151C58 151 29 151 14.5 151L0 151Z" fill="#58a8e1"></path><path d="M0 133L14.5 132.2C29 131.3 58 129.7 87.2 127.7C116.3 125.7 145.7 123.3 174.8 123.3C204 123.3 233 125.7 262 125.8C291 126 320 124 349 124.8C378 125.7 407 129.3 436.2 131C465.3 132.7 494.7 132.3 523.8 132C553 131.7 582 131.3 611 131.5C640 131.7 669 132.3 698 132C727 131.7 756 130.3 785.2 129.3C814.3 128.3 843.7 127.7 872.8 126C902 124.3 931 121.7 945.5 120.3L960 119L960 151L945.5 151C931 151 902 151 872.8 151C843.7 151 814.3 151 785.2 151C756 151 727 151 698 151C669 151 640 151 611 151C582 151 553 151 523.8 151C494.7 151 465.3 151 436.2 151C407 151 378 151 349 151C320 151 291 151 262 151C233 151 204 151 174.8 151C145.7 151 116.3 151 87.2 151C58 151 29 151 14.5 151L0 151Z" fill="#058ed9"></path></svg>