<svg version="1.2" xmlns="http://www.w3.org/2000/svg" viewBox="0 0 960 86" width="960" height="86">
	<title>layered-waves-haikei (3)-svg</title>
	<style>
		.s0 { fill: #fcfdfd } 
		.s1 { fill: #afdce7 } 
		.s2 { fill: #61b7df } 
		.s3 { fill: #058ed9 } 
	</style>
	<path id="Layer" class="s0" d="m0 38l20-1.2c20-1.1 60-3.5 100-4.3 40-0.8 80-0.2 120-2.5 40-2.3 80-7.7 120-7.7 40 0 80 5.4 120 6.9 40 1.5 80-0.9 120-0.7 40 0.2 80 2.8 120 4.8 40 2 80 3.4 120-0.5 40-3.8 80-12.8 100-17.3l20-4.5v76h-20c-20 0-60 0-100 0q-60 0-120 0-60 0-120 0-60 0-120 0-60 0-120 0-60 0-120 0-60 0-120 0c-40 0-80 0-100 0h-20z"/>
	<path id="Layer" class="s1" d="m0 26l20 2c20 2 60 6 100 5.2 40-0.9 80-6.5 120-6.4 40 0.2 80 6.2 120 8.4 40 2.1 80 0.5 120-1 40-1.5 80-2.9 120-4.7 40-1.8 80-4.2 120-1.8 40 2.3 80 9.3 120 9.5 40 0.1 80-6.5 100-9.9l20-3.3v63h-20c-20 0-60 0-100 0q-60 0-120 0-60 0-120 0-60 0-120 0-60 0-120 0-60 0-120 0-60 0-120 0c-40 0-80 0-100 0h-20z"/>
	<path id="Layer" class="s2" d="m0 49l20-1.2c20-1.1 60-3.5 100-3.8 40-0.3 80 1.3 120 1.2 40-0.2 80-2.2 120-1.5 40 0.6 80 4 120 6.1q60 3.3 120 3c40-0.1 80-1.5 120-0.6 40 0.8 80 3.8 120 3.5 40-0.4 80-4 100-5.9l20-1.8v39h-20c-20 0-60 0-100 0q-60 0-120 0-60 0-120 0-60 0-120 0-60 0-120 0-60 0-120 0-60 0-120 0c-40 0-80 0-100 0h-20z"/>
	<path id="Layer" class="s3" d="m0 68l20-0.2c20-0.1 60-0.5 100-0.8 40-0.3 80-0.7 120-2.5 40-1.8 80-5.2 120-6.7 40-1.5 80-1.1 120-0.1 40 1 80 2.6 120 5.1 40 2.5 80 5.9 120 5.9 40 0 80-3.4 120-4.4 40-1 80 0.4 100 1l20 0.7v21h-20c-20 0-60 0-100 0q-60 0-120 0-60 0-120 0-60 0-120 0-60 0-120 0-60 0-120 0-60 0-120 0c-40 0-80 0-100 0h-20z"/>
</svg>